<svg width="22" height="22" viewBox="0 0 22 22" fill="none" xmlns="http://www.w3.org/2000/svg">
<path d="M21.1838 10.8359L11.5299 1.18904C11.4604 1.11939 11.3778 1.06414 11.2869 1.02644C11.196 0.988735 11.0986 0.96933 11.0002 0.96933C10.9018 0.96933 10.8044 0.988735 10.7135 1.02644C10.6226 1.06414 10.54 1.11939 10.4705 1.18904L0.816602 10.8359C0.535352 11.1172 0.375977 11.4992 0.375977 11.8976C0.375977 12.725 1.04863 13.3976 1.87598 13.3976H2.89316V20.2812C2.89316 20.6961 3.22832 21.0312 3.64316 21.0312H9.50019V15.7812H12.1252V21.0312H18.3572C18.7721 21.0312 19.1072 20.6961 19.1072 20.2812V13.3976H20.1244C20.5229 13.3976 20.9049 13.2406 21.1861 12.957C21.7697 12.3711 21.7697 11.4218 21.1838 10.8359Z" fill="black"/>
</svg>
