<svg width="22" height="22" viewBox="0 0 22 22" fill="none" xmlns="http://www.w3.org/2000/svg">
<path d="M21.1839 10.8359L12.1276 1.78437L11.5206 1.17734C11.3823 1.03994 11.1952 0.96283 11.0003 0.96283C10.8053 0.96283 10.6183 1.03994 10.48 1.17734L0.816699 10.8359C0.674975 10.9771 0.562968 11.1452 0.48729 11.3304C0.411611 11.5156 0.373795 11.714 0.376074 11.9141C0.385449 12.7391 1.07217 13.3977 1.89717 13.3977H2.89326V21.0312H19.1073V13.3977H20.1245C20.5253 13.3977 20.9026 13.2406 21.1862 12.957C21.3259 12.8178 21.4365 12.6523 21.5117 12.4701C21.587 12.2878 21.6253 12.0925 21.6245 11.8953C21.6245 11.4969 21.4675 11.1195 21.1839 10.8359ZM12.3128 19.3437H9.68779V14.5625H12.3128V19.3437ZM17.4198 11.7102V19.3437H13.8128V14C13.8128 13.482 13.3933 13.0625 12.8753 13.0625H9.12529C8.60732 13.0625 8.18779 13.482 8.18779 14V19.3437H4.58076V11.7102H2.33076L11.0026 3.04531L11.544 3.58672L19.6722 11.7102H17.4198Z" fill="black"/>
</svg>
