<svg width="14" height="14" viewBox="0 0 14 14" fill="none" xmlns="http://www.w3.org/2000/svg">
<path d="M11.8782 9.93594C11.4871 9.54453 11.0301 9.22506 10.5282 8.99219C11.236 8.41875 11.6875 7.54375 11.6875 6.5625C11.6875 4.83125 10.2438 3.41094 8.51254 3.4375C6.80785 3.46406 5.43441 4.85313 5.43441 6.5625C5.43441 7.54375 5.88754 8.41875 6.59379 8.99219C6.09177 9.22489 5.63476 9.54438 5.24379 9.93594C4.39066 10.7906 3.90629 11.9187 3.87504 13.1219C3.87462 13.1386 3.87755 13.1551 3.88364 13.1707C3.88974 13.1862 3.89888 13.2004 3.91053 13.2123C3.92218 13.2242 3.9361 13.2337 3.95147 13.2402C3.96684 13.2467 3.98336 13.25 4.00004 13.25H4.87504C4.94223 13.25 4.99848 13.1969 5.00004 13.1297C5.02973 12.2234 5.39691 11.375 6.04223 10.7312C6.37245 10.3993 6.76523 10.1361 7.19784 9.95693C7.63045 9.77777 8.0943 9.6862 8.56254 9.6875C9.5141 9.6875 10.4094 10.0578 11.0829 10.7312C11.7266 11.375 12.0938 12.2234 12.125 13.1297C12.1266 13.1969 12.1829 13.25 12.25 13.25H13.125C13.1417 13.25 13.1582 13.2467 13.1736 13.2402C13.189 13.2337 13.2029 13.2242 13.2146 13.2123C13.2262 13.2004 13.2353 13.1862 13.2414 13.1707C13.2475 13.1551 13.2505 13.1386 13.25 13.1219C13.2188 11.9187 12.7344 10.7906 11.8782 9.93594ZM8.56254 8.5625C8.02816 8.5625 7.52504 8.35469 7.14848 7.97656C6.9595 7.78907 6.81022 7.56544 6.70955 7.319C6.60888 7.07256 6.55888 6.80837 6.56254 6.54219C6.56723 6.02969 6.77191 5.53438 7.12973 5.16719C7.50473 4.78281 8.00629 4.56875 8.54223 4.5625C9.07192 4.55781 9.58598 4.76406 9.9641 5.13438C10.3516 5.51406 10.5641 6.02188 10.5641 6.5625C10.5641 7.09688 10.3563 7.59844 9.97816 7.97656C9.79265 8.16296 9.57202 8.31072 9.32903 8.4113C9.08604 8.51187 8.82552 8.56327 8.56254 8.5625ZM4.64848 6.975C4.63441 6.83906 4.6266 6.70156 4.6266 6.5625C4.6266 6.31406 4.65004 6.07188 4.69379 5.83594C4.70473 5.77969 4.67504 5.72188 4.62348 5.69844C4.41098 5.60313 4.21566 5.47188 4.04691 5.30625C3.84807 5.11345 3.6916 4.88132 3.58748 4.62466C3.48337 4.36801 3.4339 4.09247 3.44223 3.81563C3.45629 3.31406 3.65785 2.8375 4.00941 2.47813C4.39535 2.08281 4.9141 1.86719 5.46566 1.87344C5.9641 1.87813 6.44535 2.07031 6.80941 2.41094C6.93285 2.52656 7.0391 2.65469 7.12817 2.79219C7.15942 2.84063 7.22035 2.86094 7.27348 2.84219C7.54848 2.74688 7.8391 2.67969 8.13754 2.64844C8.22504 2.63906 8.27504 2.54531 8.23598 2.46719C7.72816 1.4625 6.69066 0.76875 5.49066 0.75C3.75785 0.723438 2.3141 2.14375 2.3141 3.87344C2.3141 4.85469 2.76566 5.72969 3.47348 6.30313C2.9766 6.53281 2.51879 6.85 2.12191 7.24688C1.26566 8.10156 0.781289 9.22969 0.750039 10.4344C0.749622 10.4511 0.752547 10.4676 0.758642 10.4832C0.764737 10.4987 0.773878 10.5129 0.785527 10.5248C0.797176 10.5367 0.811098 10.5462 0.826471 10.5527C0.841844 10.5592 0.858358 10.5625 0.875039 10.5625H1.7516C1.81879 10.5625 1.87504 10.5094 1.8766 10.4422C1.90629 9.53594 2.27348 8.6875 2.91879 8.04375C3.37816 7.58438 3.94066 7.26562 4.55473 7.11094C4.61566 7.09531 4.65629 7.0375 4.64848 6.975Z" fill="#666666"/>
</svg>
