<svg width="40" height="54" viewBox="0 0 40 54" fill="none" xmlns="http://www.w3.org/2000/svg">
<path opacity="0.2" fill-rule="evenodd" clip-rule="evenodd" d="M20 54C23.3137 54 26 52.6569 26 51C26 49.3431 23.3137 48 20 48C16.6863 48 14 49.3431 14 51C14 52.6569 16.6863 54 20 54Z" fill="black"/>
<rect x="18" y="20" width="4" height="32" rx="2" fill="black"/>
<path fill-rule="evenodd" clip-rule="evenodd" d="M20 40C31.0457 40 40 31.0457 40 20C40 8.9543 31.0457 0 20 0C8.9543 0 0 8.9543 0 20C0 31.0457 8.9543 40 20 40Z" fill="#27AE60"/>
<path fill-rule="evenodd" clip-rule="evenodd" d="M20 27.3334C20 27.3334 26 23.3334 26 18.6667C26 17.0754 25.3679 15.5493 24.2426 14.424C23.1174 13.2988 21.5913 12.6667 20 12.6667C18.4087 12.6667 16.8826 13.2988 15.7574 14.424C14.6321 15.5493 14 17.0754 14 18.6667C14 23.3334 20 27.3334 20 27.3334ZM22 18.6667C22 19.7713 21.1046 20.6667 20 20.6667C18.8954 20.6667 18 19.7713 18 18.6667C18 17.5621 18.8954 16.6667 20 16.6667C21.1046 16.6667 22 17.5621 22 18.6667Z" fill="white"/>
</svg>
